<svg width="136" height="98" viewBox="0 0 136 98" fill="none" xmlns="http://www.w3.org/2000/svg">
<rect width="136" height="98" fill="#155DFC"/>
<path d="M67.7813 56.2812C68.8125 56.2812 69.6956 56.0394 70.4306 55.5556C71.1656 55.0719 71.5325 54.3138 71.5313 53.2813C71.5313 52.375 71.1488 51.6406 70.3838 51.0781C69.6188 50.5156 68.2513 49.875 66.2813 49.1563C64.4375 48.5 63.0863 47.7188 62.2275 46.8125C61.3688 45.9063 60.9388 44.7187 60.9375 43.25C60.9375 41.9687 61.3831 40.805 62.2744 39.7587C63.1656 38.7125 64.3763 38.0325 65.9063 37.7188V37.0156C65.9063 36.5781 66.0706 36.1956 66.3994 35.8681C66.7281 35.5406 67.1106 35.3762 67.5469 35.375C67.9831 35.3738 68.3663 35.5381 68.6963 35.8681C69.0263 36.1981 69.19 36.5806 69.1875 37.0156V37.7188C70.0938 37.7813 70.93 38.0862 71.6963 38.6337C72.4625 39.1812 73.0794 39.845 73.5469 40.625C73.7656 40.9688 73.7813 41.3362 73.5938 41.7275C73.4063 42.1187 73.0938 42.3919 72.6563 42.5469C72.25 42.7031 71.8438 42.7188 71.4375 42.5938C71.0313 42.4688 70.7031 42.2344 70.4531 41.8906C70.1406 41.5156 69.75 41.2112 69.2813 40.9775C68.8125 40.7437 68.25 40.6263 67.5938 40.625C66.5 40.625 65.6638 40.8594 65.085 41.3281C64.5063 41.7969 64.2175 42.4375 64.2188 43.25C64.22 44.0625 64.5794 44.7031 65.2969 45.1719C66.0144 45.6406 67.3113 46.1875 69.1875 46.8125C71.4375 47.625 72.9375 48.5781 73.6875 49.6719C74.4375 50.7656 74.8125 51.9688 74.8125 53.2813C74.8125 54.1875 74.6563 54.9844 74.3438 55.6719C74.0313 56.3594 73.6169 56.9456 73.1006 57.4306C72.5844 57.9156 71.9831 58.3063 71.2969 58.6025C70.6106 58.8988 69.8763 59.125 69.0938 59.2812V59.9844C69.0938 60.4219 68.9294 60.805 68.6006 61.1338C68.2719 61.4625 67.8894 61.6262 67.4531 61.625C67.0169 61.6238 66.6344 61.46 66.3056 61.1338C65.9769 60.8075 65.8125 60.4244 65.8125 59.9844V59.1875C64.625 58.9375 63.6094 58.4688 62.7656 57.7813C61.9219 57.0938 61.25 56.2188 60.75 55.1563C60.5625 54.7188 60.5706 54.2969 60.7744 53.8906C60.9781 53.4844 61.2981 53.2031 61.7344 53.0469C62.1406 52.8906 62.5469 52.8981 62.9531 53.0694C63.3594 53.2406 63.6719 53.5144 63.8906 53.8906C64.3281 54.7031 64.8831 55.3044 65.5556 55.6944C66.2281 56.0844 66.97 56.28 67.7813 56.2812ZM67.5 69.125C64 69.125 60.7813 68.3281 57.8438 66.7344C54.9063 65.1406 52.5 63.0156 50.625 60.3594V63.5C50.625 64.0312 50.445 64.4769 50.085 64.8369C49.725 65.1969 49.28 65.3762 48.75 65.375C48.22 65.3738 47.775 65.1937 47.415 64.835C47.055 64.4762 46.875 64.0312 46.875 63.5V56C46.875 55.4688 47.055 55.0238 47.415 54.665C47.775 54.3063 48.22 54.1262 48.75 54.125H56.25C56.7813 54.125 57.2269 54.305 57.5869 54.665C57.9469 55.025 58.1263 55.47 58.125 56C58.1238 56.53 57.9438 56.9756 57.585 57.3369C57.2263 57.6981 56.7813 57.8775 56.25 57.875H53.4844C54.9844 60.125 56.9613 61.9375 59.415 63.3125C61.8688 64.6875 64.5638 65.375 67.5 65.375C71.9063 65.375 75.6956 63.9062 78.8681 60.9687C82.0406 58.0312 83.845 54.4219 84.2813 50.1406C84.3438 49.6406 84.5625 49.2419 84.9375 48.9444C85.3125 48.6469 85.75 48.4988 86.25 48.5C86.7813 48.5 87.2344 48.6644 87.6094 48.9931C87.9844 49.3219 88.1406 49.72 88.0781 50.1875C87.8594 52.8437 87.1719 55.32 86.0156 57.6162C84.8594 59.9125 83.3594 61.9125 81.5156 63.6163C79.6719 65.32 77.555 66.6637 75.165 67.6475C72.775 68.6312 70.22 69.1238 67.5 69.125ZM67.5 31.625C63.0938 31.625 59.305 33.0937 56.1338 36.0312C52.9625 38.9687 51.1575 42.5781 50.7188 46.8594C50.6563 47.3594 50.4375 47.7581 50.0625 48.0556C49.6875 48.3531 49.25 48.5012 48.75 48.5C48.2188 48.5 47.7656 48.3362 47.3906 48.0087C47.0156 47.6812 46.8594 47.2825 46.9219 46.8125C47.1406 44.1563 47.8281 41.68 48.9844 39.3838C50.1406 37.0875 51.6406 35.0875 53.4844 33.3837C55.3281 31.68 57.4456 30.3362 59.8369 29.3525C62.2281 28.3687 64.7825 27.8762 67.5 27.875C71 27.875 74.2188 28.6719 77.1563 30.2656C80.0938 31.8594 82.5 33.9844 84.375 36.6406V33.5C84.375 32.9688 84.555 32.5238 84.915 32.165C85.275 31.8063 85.72 31.6262 86.25 31.625C86.78 31.6238 87.2256 31.8038 87.5869 32.165C87.9481 32.5263 88.1275 32.9712 88.125 33.5V41C88.125 41.5312 87.945 41.9769 87.585 42.3369C87.225 42.6969 86.78 42.8762 86.25 42.875H78.75C78.2188 42.875 77.7738 42.695 77.415 42.335C77.0563 41.975 76.8763 41.53 76.875 41C76.8738 40.47 77.0538 40.025 77.415 39.665C77.7763 39.305 78.2213 39.125 78.75 39.125H81.5156C80.0156 36.875 78.0394 35.0625 75.5869 33.6875C73.1344 32.3125 70.4388 31.625 67.5 31.625Z" fill="white"/>
</svg>
