<svg width="136" height="98" viewBox="0 0 136 98" fill="none" xmlns="http://www.w3.org/2000/svg">
<rect width="136" height="98" fill="#202020"/>
<path d="M49.25 56.2344H83C83.5313 56.2344 83.9769 56.4144 84.3369 56.7744C84.6969 57.1344 84.8763 57.5794 84.875 58.1094C84.8738 58.6394 84.6938 59.085 84.335 59.4462C83.9763 59.8075 83.5313 59.9869 83 59.9844H49.25C48.7188 59.9844 48.2738 59.8044 47.915 59.4444C47.5563 59.0844 47.3763 58.6394 47.375 58.1094C47.3738 57.5794 47.5538 57.1344 47.915 56.7744C48.2763 56.4144 48.7213 56.2344 49.25 56.2344ZM51.125 45.8281L50.2344 47.4219C50.0469 47.7656 49.7656 47.9844 49.3906 48.0781C49.0156 48.1719 48.6563 48.125 48.3125 47.9375C47.9688 47.75 47.75 47.4687 47.6563 47.0937C47.5625 46.7187 47.6094 46.3594 47.7969 46.0156L48.6875 44.4219H46.9063C46.5 44.4219 46.1644 44.2894 45.8994 44.0244C45.6344 43.7594 45.5013 43.4231 45.5 43.0156C45.4988 42.6081 45.6319 42.2725 45.8994 42.0087C46.1669 41.745 46.5025 41.6119 46.9063 41.6094H48.6875L47.7969 40.1094C47.6094 39.7656 47.5625 39.4062 47.6563 39.0312C47.75 38.6562 47.9688 38.375 48.3125 38.1875C48.6563 38 49.0156 37.9531 49.3906 38.0469C49.7656 38.1406 50.0469 38.3594 50.2344 38.7031L51.125 40.2031L52.0156 38.7031C52.2031 38.3594 52.4844 38.1406 52.8594 38.0469C53.2344 37.9531 53.5938 38 53.9375 38.1875C54.2813 38.375 54.5 38.6562 54.5938 39.0312C54.6875 39.4062 54.6406 39.7656 54.4531 40.1094L53.5625 41.6094H55.3438C55.75 41.6094 56.0863 41.7425 56.3525 42.0087C56.6188 42.275 56.7513 42.6106 56.75 43.0156C56.7488 43.4206 56.6156 43.7569 56.3506 44.0244C56.0856 44.2919 55.75 44.4244 55.3438 44.4219H53.5625L54.4531 46.0156C54.6406 46.3594 54.6875 46.7187 54.5938 47.0937C54.5 47.4687 54.2813 47.75 53.9375 47.9375C53.5938 48.125 53.2344 48.1719 52.8594 48.0781C52.4844 47.9844 52.2031 47.7656 52.0156 47.4219L51.125 45.8281ZM66.125 45.8281L65.2344 47.4219C65.0469 47.7656 64.7656 47.9844 64.3906 48.0781C64.0156 48.1719 63.6563 48.125 63.3125 47.9375C62.9688 47.75 62.75 47.4687 62.6563 47.0937C62.5625 46.7187 62.6094 46.3594 62.7969 46.0156L63.6875 44.4219H61.9063C61.5 44.4219 61.1644 44.2894 60.8994 44.0244C60.6344 43.7594 60.5013 43.4231 60.5 43.0156C60.4988 42.6081 60.6319 42.2725 60.8994 42.0087C61.1669 41.745 61.5025 41.6119 61.9063 41.6094H63.6875L62.7969 40.1094C62.6094 39.7656 62.5625 39.4062 62.6563 39.0312C62.75 38.6562 62.9688 38.375 63.3125 38.1875C63.6563 38 64.0156 37.9531 64.3906 38.0469C64.7656 38.1406 65.0469 38.3594 65.2344 38.7031L66.125 40.2031L67.0156 38.7031C67.2031 38.3594 67.4844 38.1406 67.8594 38.0469C68.2344 37.9531 68.5938 38 68.9375 38.1875C69.2813 38.375 69.5 38.6562 69.5938 39.0312C69.6875 39.4062 69.6406 39.7656 69.4531 40.1094L68.5625 41.6094H70.3438C70.75 41.6094 71.0856 41.7425 71.3506 42.0087C71.6156 42.275 71.7488 42.6106 71.75 43.0156C71.7513 43.4206 71.6181 43.7569 71.3506 44.0244C71.0831 44.2919 70.7475 44.4244 70.3438 44.4219H68.5625L69.4531 46.0156C69.6406 46.3594 69.6875 46.7187 69.5938 47.0937C69.5 47.4687 69.2813 47.75 68.9375 47.9375C68.5938 48.125 68.2344 48.1719 67.8594 48.0781C67.4844 47.9844 67.2031 47.7656 67.0156 47.4219L66.125 45.8281ZM81.125 45.8281L80.2344 47.4219C80.0469 47.7656 79.7656 47.9844 79.3906 48.0781C79.0156 48.1719 78.6563 48.125 78.3125 47.9375C77.9688 47.75 77.75 47.4687 77.6563 47.0937C77.5625 46.7187 77.6094 46.3594 77.7969 46.0156L78.6875 44.4219H76.9063C76.5 44.4219 76.1644 44.2894 75.8994 44.0244C75.6344 43.7594 75.5013 43.4231 75.5 43.0156C75.4988 42.6081 75.6319 42.2725 75.8994 42.0087C76.1669 41.745 76.5025 41.6119 76.9063 41.6094H78.6875L77.7969 40.1094C77.6094 39.7656 77.5625 39.4062 77.6563 39.0312C77.75 38.6562 77.9688 38.375 78.3125 38.1875C78.6563 38 79.0156 37.9531 79.3906 38.0469C79.7656 38.1406 80.0469 38.3594 80.2344 38.7031L81.125 40.2031L82.0156 38.7031C82.2031 38.3594 82.4844 38.1406 82.8594 38.0469C83.2344 37.9531 83.5938 38 83.9375 38.1875C84.2813 38.375 84.5 38.6562 84.5938 39.0312C84.6875 39.4062 84.6406 39.7656 84.4531 40.1094L83.5625 41.6094H85.3438C85.75 41.6094 86.0863 41.7425 86.3525 42.0087C86.6188 42.275 86.7513 42.6106 86.75 43.0156C86.7488 43.4206 86.6156 43.7569 86.3506 44.0244C86.0856 44.2919 85.75 44.4244 85.3438 44.4219H83.5625L84.4531 46.0156C84.6406 46.3594 84.6875 46.7187 84.5938 47.0937C84.5 47.4687 84.2813 47.75 83.9375 47.9375C83.5938 48.125 83.2344 48.1719 82.8594 48.0781C82.4844 47.9844 82.2031 47.7656 82.0156 47.4219L81.125 45.8281Z" fill="#64EC83"/>
</svg>
