<svg width="136" height="98" viewBox="0 0 136 98" fill="none" xmlns="http://www.w3.org/2000/svg">
<rect width="136" height="98" fill="white"/>
<path d="M62.0633 57.1656L82.8977 36.3313C83.3893 35.8396 83.963 35.5938 84.6185 35.5938C85.2741 35.5938 85.8477 35.8396 86.3393 36.3313C86.831 36.8229 87.0768 37.4072 87.0768 38.084C87.0768 38.7609 86.831 39.3443 86.3393 39.8344L63.7841 62.451C63.2925 62.9427 62.7189 63.1885 62.0633 63.1885C61.4077 63.1885 60.8341 62.9427 60.3425 62.451L49.7716 51.8802C49.28 51.3885 49.044 50.8051 49.0636 50.1299C49.0833 49.4547 49.3398 48.8704 49.8331 48.3771C50.3264 47.8838 50.9107 47.6379 51.5859 47.6396C52.2611 47.6412 52.8446 47.8871 53.3362 48.3771L62.0633 57.1656Z" fill="#155DFC"/>
</svg>
