<svg width="868" height="868" viewBox="0 0 868 868" fill="none" xmlns="http://www.w3.org/2000/svg">
<g clip-path="url(#clip0_1_2)">
<path d="M868 504.332C868 487.744 798.198 492.277 792.653 480.221C787.107 468.165 870.001 369.696 857.946 347.61C845.89 325.524 735.317 375.748 728.348 364.681C721.404 353.638 735.389 280.292 723.333 271.25C711.278 262.208 596.75 389.78 580.668 374.735C564.586 359.69 617.847 121.568 606.853 116.794C595.858 112.02 524.417 149.706 515.399 147.705C506.382 145.679 450.444 0 434 0C417.556 0 361.618 145.679 352.601 147.681C343.583 149.682 272.142 111.996 261.147 116.77C250.153 121.544 303.39 359.641 287.308 374.711C271.25 389.78 156.722 262.208 144.667 271.25C132.611 280.292 146.596 353.638 139.652 364.681C132.683 375.723 22.1099 325.5 10.0543 347.61C-2.00122 369.72 80.9169 468.165 75.3472 480.221C69.7776 492.277 0 487.744 0 504.332C0 520.921 203.45 630.554 217 643.477C230.55 656.401 146.74 711.037 158.723 721.332C172.611 733.291 251.286 701.32 409.889 698.258V843.889C409.889 850.284 412.429 856.416 416.951 860.938C421.473 865.46 427.605 868 434 868C440.395 868 446.527 865.46 451.049 860.938C455.571 856.416 458.111 850.284 458.111 843.889V698.258C616.69 701.32 695.389 733.291 709.277 721.332C721.236 711.013 637.45 656.377 651 643.477C664.55 630.578 868 520.896 868 504.332Z" fill="#F97316"/>
</g>
<defs>
<clipPath id="clip0_1_2">
<rect width="868" height="868" fill="white"/>
</clipPath>
</defs>
</svg>
