<svg width="86" height="85" viewBox="0 0 86 85" fill="none" xmlns="http://www.w3.org/2000/svg">
<g clip-path="url(#clip0_10_2)">
<path d="M86 48.9684C86 47.3248 79.0842 47.7739 78.5347 46.5795C77.9853 45.3851 86.1983 35.6288 85.0038 33.4406C83.8094 31.2524 72.8539 36.2284 72.1636 35.1319C71.4756 34.0378 72.8611 26.7708 71.6667 25.875C70.4722 24.9792 59.125 37.6188 57.5316 36.1281C55.9382 34.6374 61.2153 11.0448 60.1259 10.5718C59.0366 10.0988 51.9583 13.8326 51.0649 13.6343C50.1714 13.4337 44.6292 -1 43 -1C41.3708 -1 35.8286 13.4337 34.9351 13.6319C34.0417 13.8302 26.9634 10.0964 25.8741 10.5694C24.7847 11.0424 30.0594 34.6327 28.466 36.1257C26.875 37.6188 15.5278 24.9792 14.3333 25.875C13.1389 26.7708 14.5244 34.0378 13.8364 35.1319C13.1461 36.2261 2.19061 31.25 0.996167 33.4406C-0.198278 35.6312 8.01711 45.3851 7.46528 46.5795C6.91344 47.7739 0 47.3248 0 48.9684C0 50.6119 20.1574 61.4742 21.5 62.7547C22.8426 64.0351 14.5388 69.4483 15.7261 70.4684C17.1021 71.6533 24.897 68.4856 40.6111 68.1822V82.6111C40.6111 83.2447 40.8628 83.8523 41.3108 84.3003C41.7588 84.7483 42.3664 85 43 85C43.6336 85 44.2412 84.7483 44.6892 84.3003C45.1372 83.8523 45.3889 83.2447 45.3889 82.6111V68.1822C61.1006 68.4856 68.8979 71.6533 70.2739 70.4684C71.4588 69.4459 63.1574 64.0327 64.5 62.7547C65.8426 61.4766 86 50.6096 86 48.9684Z" fill="#F97316"/>
</g>
<defs>
<clipPath id="clip0_10_2">
<rect width="86" height="85" fill="white"/>
</clipPath>
</defs>
</svg>
